<?xml version="1.0" encoding="utf-8"?>
<!-- Generator: Adobe Illustrator 16.0.4, SVG Export Plug-In . SVG Version: 6.00 Build 0)  -->
<!DOCTYPE svg PUBLIC "-//W3C//DTD SVG 1.1//EN" "http://www.w3.org/Graphics/SVG/1.1/DTD/svg11.dtd">
<svg version="1.1" id="Layer_1" xmlns="http://www.w3.org/2000/svg" xmlns:xlink="http://www.w3.org/1999/xlink" x="0px" y="0px"
	 width="1000px" height="1000px" viewBox="0 0 1000 1000" enable-background="new 0 0 1000 1000" xml:space="preserve">
<path fill-rule="evenodd" clip-rule="evenodd" fill="none" d="M5,1161h990c2.761,0,5,2.239,5,5v476c0,2.762-2.239,5-5,5H5
	c-2.761,0-5-2.238-5-5v-476C0,1163.239,2.239,1161,5,1161z"/>
<path fill-rule="evenodd" clip-rule="evenodd" fill="#BDBDBD" d="M5,0h990c2.762,0,5,2.239,5,5v990c0,2.762-2.238,5-5,5H5
	c-2.761,0-5-2.238-5-5V5C0,2.239,2.239,0,5,0z"/>
<path fill-rule="evenodd" clip-rule="evenodd" fill="#F1F1F1" d="M8,36h984v956H8V36z"/>
<path fill-rule="evenodd" clip-rule="evenodd" fill="#CA3A5C" d="M28,10c4.418,0,8,3.582,8,8s-3.582,8-8,8s-8-3.582-8-8
	S23.582,10,28,10z"/>
<path fill-rule="evenodd" clip-rule="evenodd" fill="#CA9A2C" d="M53,10c4.418,0,8,3.582,8,8s-3.582,8-8,8s-8-3.582-8-8
	S48.582,10,53,10z"/>
<path fill-rule="evenodd" clip-rule="evenodd" fill="#4CA657" d="M78,10c4.418,0,8,3.582,8,8s-3.582,8-8,8s-8-3.582-8-8
	S73.582,10,78,10z"/>
</svg>
