<?xml version="1.0" encoding="utf-8"?>
<!-- Generator: Adobe Illustrator 16.0.4, SVG Export Plug-In . SVG Version: 6.00 Build 0)  -->
<!DOCTYPE svg PUBLIC "-//W3C//DTD SVG 1.1//EN" "http://www.w3.org/Graphics/SVG/1.1/DTD/svg11.dtd">
<svg version="1.1" id="Layer_1" xmlns="http://www.w3.org/2000/svg" xmlns:xlink="http://www.w3.org/1999/xlink" x="0px" y="0px"
	 width="2000px" height="616px" viewBox="0 0 2000 616" enable-background="new 0 0 2000 616" xml:space="preserve">
<path fill="#4B544C" d="M2030,0H504.5c-2.761,0-5,2.239-5,5v611H2030V0z"/>
<path fill="#454F46" d="M499.5,194v417c0,2.762,2.239,5,5,5h203V194H499.5z"/>
<path fill="#353E36" d="M2030,611V194H707.5v422H2025C2027.762,616,2030,613.762,2030,611z"/>
<path fill="#3C453D" d="M2030,194V5c0-2.761-2.238-5-5-5H707.5v194H2030z"/>
<g>
	<g>
		<path fill="#AC8856" d="M842.368,141.698v-10.667l-46.245-23.313l46.245-23.036v-10.81l-67.677,33.913L842.368,141.698z
			 M911.853,80.424c-1.288-2.871-3.563-5.314-6.824-7.332c-3.262-2.017-6.865-3.026-10.812-3.026c-4.695,0-9.39,1.519-14.084,4.555
			c-4.695,3.037-8.704,7.238-12.027,12.604V40.988h-11.591v100.71h11.591v-40.621c3.032-5.823,6.886-10.67,11.56-14.539
			s9.046-5.803,13.118-5.803c2.035,0,3.915,0.687,5.64,2.06c1.724,1.373,2.907,3.13,3.552,5.272
			c0.644,2.143,0.966,6.562,0.966,13.26v40.371h11.592v-38.936c0-7.738-0.188-12.843-0.562-15.319
			C913.597,84.969,912.891,82.629,911.853,80.424z M965.726,132.338c-2.223-1.081-3.999-2.777-5.328-5.085
			c-1.33-2.309-1.994-6.271-1.994-11.887V87.475h30.972v-9.672h-30.972V49.724h-11.591v28.079h-17.387v9.672h17.387v28.079
			c0,7.654,1.028,13.312,3.084,16.972c2.057,3.661,5.1,6.427,9.13,8.299c4.029,1.872,8.476,2.808,13.336,2.808
			c2.284,0,4.652-0.218,7.104-0.655c2.45-0.437,6.396-1.799,11.84-4.087v-10.233c-6.19,3.537-12.09,5.304-17.698,5.304
			C970.575,133.961,967.947,133.421,965.726,132.338z M1061.289,70.065c-2.701,0-5.089,0.78-7.166,2.34
			c-2.078,1.56-4.082,3.661-6.014,6.302c-1.932,2.642-3.583,6.084-4.954,10.327v-3.744c0-4.867-1.028-8.621-3.085-11.263
			c-2.057-2.641-4.768-3.962-8.133-3.962c-2.825,0-5.619,1.29-8.381,3.869c-2.764,2.58-5.744,7.26-8.943,14.04V72h-10.157v69.698
			h10.157v-40.247c2.209-5.782,4.533-10.524,6.971-14.227c2.438-3.702,4.721-5.553,6.848-5.553c0.958,0,2.042,0.541,3.251,1.622
			c1.209,1.082,1.813,4.701,1.813,10.857v47.547h9.659v-38.624c2.575-7.654,5.099-13.135,7.571-16.442
			c2.472-3.307,4.788-4.96,6.948-4.96c0.872,0,1.683,0.374,2.431,1.123s1.246,1.841,1.495,3.276c0.25,1.435,0.374,4.108,0.374,8.018
			v47.609h10.158V89.034c0-7.57-1.06-12.625-3.179-15.162C1066.836,71.335,1064.28,70.065,1061.289,70.065z M1116.564,40.988
			h-32.405v9.672h20.814v91.038h33.34v-9.672h-21.749V40.988z M1157.632,73.872v10.666l46.256,23.319l-46.256,23.062v10.778
			l67.677-33.914L1157.632,73.872z"/>
	</g>
</g>
<g>
	<g>
		<path fill="#84847D" d="M613.21,132.026V44.857h-11.591c-6.689,6.157-14.583,11.169-23.681,15.038v10.483
			c5.733-2.028,10.241-4.016,13.523-5.962c3.281-1.946,6.668-4.305,10.158-7.08v74.69h-23.681v9.672h58.516v-9.672H613.21z
			 M634.024,333.985h-46.489c0.249-4.95,1.534-9.213,3.856-12.792c2.322-3.577,5.372-7.279,9.15-11.107l5.978-5.865l7.099-7.051
			c7.305-7.196,12.283-13.082,14.935-17.659c2.65-4.575,3.977-9.048,3.977-13.416c0-3.91-1.028-7.591-3.084-11.044
			c-2.057-3.452-5.194-6-9.41-7.644c-4.217-1.643-8.839-2.465-13.866-2.465c-3.407,0-7.738,0.468-12.993,1.404
			c-5.256,0.936-10.5,2.651-15.735,5.147v10.296c4.937-2.247,8.504-3.733,10.703-4.462c2.199-0.727,4.759-1.362,7.685-1.903
			c2.925-0.54,5.569-0.811,7.934-0.811c4.148,0,7.882,1.134,11.201,3.4c3.318,2.268,4.979,5.481,4.979,9.641
			c0,2.58-0.716,5.2-2.146,7.862c-1.432,2.663-4.386,6.49-8.864,11.481s-7.381,8.174-8.707,9.547l-6.593,6.739
			c-3.525,3.619-6.867,7.384-10.023,11.294c-3.157,3.911-5.296,7.436-6.418,10.576c-1.122,3.142-1.681,6.084-1.681,8.83v10.67
			h58.516V333.985z M625.985,499.628c-2.866-2.412-7.104-4.451-12.712-6.115c6.356-3.036,10.719-6.489,13.086-10.358
			c2.368-3.869,3.552-8.007,3.552-12.417c0-5.948-2.234-11.242-6.699-15.88c-4.466-4.638-12.578-6.957-24.335-6.957
			c-6.564,0-13.793,1.477-21.686,4.43v11.044c7.893-3.869,15.268-5.803,22.123-5.803c6.107,0,10.635,1.383,13.585,4.149
			c2.949,2.767,4.425,6.167,4.425,10.202c0,4.452-1.808,8.497-5.422,12.136c-3.614,3.641-9.472,5.46-17.573,5.46h-8.912v9.671h6.419
			c11.008,0,18.809,1.935,23.4,5.803c4.59,3.869,6.886,8.882,6.886,15.038c0,6.115-2.088,11.118-6.263,15.007
			c-4.175,3.89-9.462,5.834-15.859,5.834c-6.979,0-15.227-2.412-24.74-7.238v12.23c5.235,2.205,9.669,3.535,13.305,3.994
			c3.635,0.458,6.989,0.686,10.064,0.686c10.635,0,19.308-2.953,26.018-8.86c6.708-5.906,10.064-13.394,10.064-22.463
			c0-4.076-0.738-7.758-2.212-11.044C631.022,504.891,628.852,502.041,625.985,499.628z"/>
	</g>
</g>
</svg>
