<?xml version="1.0" encoding="utf-8"?>
<!-- Generator: Adobe Illustrator 16.0.4, SVG Export Plug-In . SVG Version: 6.00 Build 0)  -->
<!DOCTYPE svg PUBLIC "-//W3C//DTD SVG 1.1//EN" "http://www.w3.org/Graphics/SVG/1.1/DTD/svg11.dtd">
<svg version="1.1" id="Layer_1" xmlns="http://www.w3.org/2000/svg" xmlns:xlink="http://www.w3.org/1999/xlink" x="0px" y="0px"
	 width="32px" height="64px" viewBox="-380.5 635.5 32 64" enable-background="new -380.5 635.5 32 64" xml:space="preserve">
<path fill="#D1D3D4" d="M-364.647,639.1l-3.792,3.792c-0.327,0.326-0.624,0.674-0.89,1.036c-0.058,0.08-0.11,0.161-0.165,0.241
	c1.831-0.496,3.776-0.468,5.594,0.089l0.311-0.31l2.09-2.091c1.835-1.834,4.809-1.834,6.643,0c1.834,1.835,1.834,4.809,0,6.643
	l-2.383,2.384l-0.491,0.491l-0.478,0.477l-0.001,0.001l-0.794,0.795c-0.828,0.828-1.889,1.28-2.971,1.362v0.001c0-0.001,0,0-0.001,0
	c-0.227,0.019-0.422,0.021-0.589,0.014c-0.367-0.016-0.58-0.072-0.58-0.072c0-0.001,0-0.002,0-0.002c-0.001,0-0.001,0-0.001,0
	c-0.916-0.162-1.792-0.597-2.5-1.303c-0.688-0.688-1.118-1.536-1.29-2.425c-0.005-0.025-0.008-0.05-0.013-0.076
	c-0.804,0.066-1.59,0.404-2.203,1.019l-1.263,1.263c0.433,1.097,1.09,2.126,1.977,3.012c0.887,0.887,1.914,1.546,3.01,1.978
	c0.202,0.08,0.406,0.15,0.612,0.215c0.172,0.054,0.345,0.104,0.521,0.147c0.013,0.004,0.023,0.006,0.035,0.009
	c0.032,0.007,0.063,0.014,0.095,0.02c1.818,0.419,3.74,0.26,5.477-0.479c0.214-0.091,0.425-0.189,0.633-0.298
	c0.011-0.006,0.023-0.012,0.033-0.017c0.035-0.019,0.069-0.039,0.103-0.059c0.088-0.047,0.176-0.095,0.263-0.146
	c0.001-0.001,0.001-0.001,0.003-0.002c0.629-0.373,1.224-0.829,1.764-1.369l3.792-3.792c3.465-3.465,3.465-9.083,0-12.548
	C-355.563,635.634-361.182,635.634-364.647,639.1z"/>
<path fill="#D1D3D4" d="M-364.353,663.902l3.792-3.793c0.328-0.326,0.624-0.675,0.89-1.036c0.058-0.079,0.111-0.161,0.165-0.242
	c-1.831,0.498-3.775,0.469-5.594-0.088l-0.311,0.31l-2.09,2.092c-1.834,1.834-4.808,1.834-6.643-0.001s-1.834-4.808,0-6.643
	l2.384-2.383l0.49-0.491l0.477-0.477l0.002-0.002l0.794-0.794c0.828-0.827,1.887-1.28,2.97-1.361v-0.001c0,0,0,0,0.001,0
	c0.227-0.021,0.423-0.021,0.589-0.015c0.367,0.016,0.579,0.072,0.579,0.072c0,0,0,0.001,0,0.001c0,0,0.001,0,0.001,0.001
	c0.916,0.162,1.792,0.596,2.5,1.302c0.688,0.688,1.118,1.536,1.289,2.425c0.006,0.025,0.008,0.051,0.012,0.076
	c0.804-0.066,1.59-0.404,2.204-1.018l1.264-1.264c-0.433-1.097-1.091-2.124-1.978-3.012c-0.886-0.886-1.913-1.544-3.01-1.977
	c-0.202-0.079-0.406-0.15-0.612-0.215c-0.172-0.055-0.345-0.104-0.52-0.146c-0.014-0.004-0.024-0.007-0.036-0.01
	c-0.031-0.008-0.063-0.014-0.094-0.021c-1.818-0.419-3.74-0.259-5.476,0.479c-0.214,0.091-0.425,0.189-0.633,0.298
	c-0.011,0.005-0.022,0.012-0.034,0.017c-0.035,0.019-0.068,0.039-0.102,0.058c-0.088,0.047-0.176,0.095-0.263,0.146
	c-0.001,0.001-0.001,0.001-0.002,0.001c-0.63,0.372-1.223,0.83-1.764,1.371l-3.792,3.79c-3.465,3.466-3.465,9.083,0,12.548
	C-373.436,667.367-367.818,667.367-364.353,663.902z"/>
<path fill="#939598" d="M-364.647,671.1l-3.792,3.791c-0.327,0.326-0.624,0.674-0.89,1.037c-0.058,0.08-0.11,0.16-0.165,0.24
	c1.831-0.496,3.776-0.467,5.594,0.09l0.311-0.311l2.09-2.09c1.835-1.834,4.809-1.834,6.643,0c1.834,1.834,1.834,4.809,0,6.643
	l-2.383,2.383l-0.491,0.492l-0.478,0.477h-0.001l-0.794,0.795c-0.828,0.828-1.889,1.281-2.971,1.363l0,0c0,0,0,0-0.001,0
	c-0.227,0.02-0.422,0.021-0.589,0.014c-0.367-0.016-0.58-0.072-0.58-0.072v-0.002c-0.001,0-0.001,0-0.001,0
	c-0.916-0.162-1.792-0.596-2.5-1.303c-0.688-0.688-1.118-1.535-1.29-2.424c-0.005-0.025-0.008-0.051-0.013-0.076
	c-0.804,0.066-1.59,0.404-2.203,1.018l-1.263,1.264c0.433,1.096,1.09,2.125,1.977,3.012s1.914,1.545,3.01,1.977
	c0.202,0.08,0.406,0.15,0.612,0.215c0.172,0.055,0.345,0.104,0.521,0.148c0.013,0.004,0.023,0.006,0.035,0.008
	c0.032,0.008,0.063,0.014,0.095,0.02c1.818,0.42,3.74,0.26,5.477-0.479c0.214-0.09,0.425-0.189,0.633-0.297
	c0.011-0.006,0.023-0.012,0.033-0.018c0.035-0.018,0.069-0.039,0.103-0.059c0.088-0.047,0.176-0.094,0.263-0.145
	c0.001-0.002,0.001-0.002,0.003-0.002c0.629-0.373,1.224-0.83,1.764-1.369l3.792-3.793c3.465-3.465,3.465-9.082,0-12.547
	C-355.564,667.633-361.182,667.633-364.647,671.1z"/>
<path fill="#939598" d="M-364.353,695.901l3.792-3.793c0.328-0.326,0.624-0.674,0.89-1.035c0.058-0.08,0.111-0.162,0.165-0.242
	c-1.831,0.498-3.775,0.469-5.594-0.088l-0.311,0.309l-2.09,2.092c-1.834,1.834-4.808,1.834-6.643,0
	c-1.834-1.836-1.834-4.809,0-6.643l2.384-2.383l0.49-0.492l0.477-0.477l0.002-0.002l0.794-0.793c0.828-0.828,1.887-1.281,2.97-1.361
	v-0.002c0,0,0,0,0.001,0c0.227-0.02,0.423-0.021,0.589-0.014c0.367,0.016,0.579,0.072,0.579,0.072c0,0,0,0,0,0
	c0,0,0.001,0,0.001,0.002c0.916,0.162,1.792,0.596,2.5,1.301c0.688,0.689,1.118,1.537,1.289,2.426
	c0.006,0.025,0.008,0.051,0.012,0.076c0.804-0.066,1.59-0.404,2.204-1.018l1.264-1.264c-0.433-1.098-1.091-2.125-1.978-3.012
	c-0.886-0.887-1.913-1.545-3.01-1.977c-0.202-0.08-0.406-0.15-0.612-0.215c-0.172-0.055-0.345-0.105-0.52-0.146
	c-0.014-0.004-0.024-0.008-0.036-0.01c-0.031-0.008-0.063-0.014-0.094-0.021c-1.818-0.418-3.74-0.258-5.476,0.48
	c-0.214,0.09-0.425,0.189-0.633,0.297c-0.011,0.006-0.022,0.012-0.034,0.018c-0.035,0.018-0.068,0.039-0.102,0.057
	c-0.088,0.047-0.176,0.096-0.263,0.146c-0.001,0.002-0.001,0.002-0.002,0.002c-0.63,0.371-1.223,0.83-1.764,1.371l-3.792,3.789
	c-3.465,3.467-3.465,9.084,0,12.549S-367.819,699.366-364.353,695.901z"/>
</svg>
